<svg version="1.1" viewBox="0.0 0.0 470.06299212598424 100.0" fill="none" stroke="none" stroke-linecap="square" stroke-miterlimit="10" xmlns:xlink="http://www.w3.org/1999/xlink" xmlns="http://www.w3.org/2000/svg"><clipPath id="p.0"><path d="m0 0l470.063 0l0 100.0l-470.063 0l0 -100.0z" clip-rule="nonzero"/></clipPath><g clip-path="url(#p.0)"><path fill="#000000" fill-opacity="0.0" d="m0 0l470.063 0l0 100.0l-470.063 0z" fill-rule="evenodd"/><path fill="#000000" fill-opacity="0.0" d="m0 0l501.00787 0l0 96.944885l-501.00787 0z" fill-rule="evenodd"/><path fill="#ffff00" d="m14.625 70.44l0 -44.796875l18.765625 0q4.921875 0 9.015625 1.640625q4.09375 1.625 7.0625 4.640625q2.984375 3.0 4.578125 7.09375q1.609375 4.09375 1.609375 9.015625q0 4.9375 -1.609375 9.0625q-1.59375 4.125 -4.578125 7.109375q-2.96875 2.96875 -7.0625 4.609375q-4.09375 1.625 -9.015625 1.625l-18.765625 0zm10.890625 -7.421875l-1.46875 -2.171875l9.015625 0q2.6875 0 4.796875 -0.921875q2.109375 -0.9375 3.609375 -2.59375q1.515625 -1.671875 2.34375 -4.03125q0.828125 -2.375 0.828125 -5.265625q0 -2.875 -0.828125 -5.234375q-0.828125 -2.375 -2.34375 -4.03125q-1.5 -1.671875 -3.609375 -2.59375q-2.109375 -0.9375 -4.796875 -0.9375l-9.21875 0l1.671875 -2.046875l0 29.828125zm53.439163 8.0625q-5.3125 0 -9.453125 -2.296875q-4.125 -2.3125 -6.53125 -6.28125q-2.390625 -3.96875 -2.390625 -9.09375q0 -5.109375 2.390625 -9.078125q2.40625 -3.96875 6.53125 -6.265625q4.140625 -2.3125 9.453125 -2.3125q5.3125 0 9.4375 2.3125q4.125 2.296875 6.484375 6.265625q2.375 3.96875 2.375 9.078125q0 5.125 -2.375 9.09375q-2.359375 3.96875 -6.484375 6.28125q-4.125 2.296875 -9.4375 2.296875zm0 -8.828125q2.296875 0 4.09375 -1.15625q1.796875 -1.15625 2.8125 -3.140625q1.03125 -1.984375 0.96875 -4.546875q0.0625 -2.546875 -0.96875 -4.5625q-1.015625 -2.015625 -2.8125 -3.171875q-1.796875 -1.15625 -4.09375 -1.15625q-2.3125 0 -4.140625 1.15625q-1.8125 1.15625 -2.84375 3.171875q-1.015625 2.015625 -0.953125 4.5625q-0.0625 2.5625 0.953125 4.546875q1.03125 1.984375 2.84375 3.140625q1.828125 1.15625 4.140625 1.15625zm34.485794 8.1875l-14.203125 -33.984375l11.328125 0l8.453125 25.40625l-2.5 0.265625l8.703125 -25.671875l11.203125 0l-14.90625 33.984375l-8.078125 0zm43.52556 0.640625q-5.625 0 -9.796875 -2.265625q-4.15625 -2.28125 -6.46875 -6.21875q-2.296875 -3.9375 -2.296875 -8.984375q0 -3.90625 1.28125 -7.171875q1.28125 -3.265625 3.578125 -5.65625q2.3125 -2.40625 5.484375 -3.71875q3.171875 -1.3125 6.9375 -1.3125q3.59375 0 6.5625 1.28125q2.96875 1.28125 5.140625 3.59375q2.1875 2.296875 3.328125 5.4375q1.15625 3.125 1.03125 6.84375l-0.0625 2.75l-27.0625 0l-1.484375 -5.765625l20.234375 0l-1.09375 1.21875l0 -1.28125q-0.125 -1.59375 -1.0 -2.84375q-0.859375 -1.25 -2.265625 -1.953125q-1.40625 -0.703125 -3.203125 -0.703125q-2.484375 0 -4.25 1.0q-1.765625 0.984375 -2.65625 2.875q-0.890625 1.875 -0.890625 4.640625q0 2.8125 1.171875 4.890625q1.1875 2.078125 3.453125 3.234375q2.28125 1.15625 5.421875 1.15625q2.171875 0 3.859375 -0.640625q1.703125 -0.640625 3.6875 -2.1875l4.796875 6.78125q-1.984375 1.734375 -4.21875 2.828125q-2.234375 1.078125 -4.578125 1.625q-2.328125 0.546875 -4.640625 0.546875zm21.316437 -0.640625l0 -33.984375l9.71875 0l0.453125 11.078125l-1.921875 -2.125q0.765625 -2.75 2.53125 -4.921875q1.765625 -2.171875 4.125 -3.453125q2.375 -1.28125 5.0625 -1.28125q1.140625 0 2.125 0.203125q1.0 0.1875 1.84375 0.4375l-2.828125 11.328125q-0.703125 -0.453125 -1.890625 -0.734375q-1.171875 -0.296875 -2.453125 -0.296875q-1.40625 0 -2.625 0.484375q-1.21875 0.484375 -2.046875 1.390625q-0.828125 0.890625 -1.3125 2.109375q-0.484375 1.203125 -0.484375 2.734375l0 17.03125l-10.296875 0zm71.037415 0.640625q-5.0625 0 -9.3125 -1.6875q-4.25 -1.703125 -7.390625 -4.796875q-3.140625 -3.109375 -4.84375 -7.359375q-1.6875 -4.265625 -1.6875 -9.390625q0 -4.984375 1.796875 -9.203125q1.796875 -4.234375 4.953125 -7.328125q3.171875 -3.109375 7.484375 -4.84375q4.328125 -1.734375 9.453125 -1.734375q3.1875 0 6.2656403 0.84375q3.078125 0.828125 5.734375 2.46875q2.65625 1.625 4.578125 3.859375l-6.65625 7.625q-1.34375 -1.40625 -2.859375 -2.46875q-1.5000153 -1.0625 -3.2968903 -1.625q-1.78125 -0.578125 -3.828125 -0.578125q-2.5625 0 -4.84375 0.921875q-2.265625 0.921875 -3.96875 2.625q-1.6875 1.6875 -2.65625 4.125q-0.953125 2.4375 -0.953125 5.4375q0 2.953125 0.953125 5.359375q0.96875 2.390625 2.6875 4.125q1.734375 1.71875 4.1875 2.625q2.46875 0.890625 5.484375 0.890625q2.046875 0 3.90625 -0.578125q1.8593903 -0.578125 3.4218903 -1.5625q1.5625 -1.0 2.78125 -2.28125l5.25 8.328125q-1.59375 1.78125 -4.25 3.203125q-2.65625 1.40625 -5.8906403 2.203125q-3.234375 0.796875 -6.5 0.796875zm22.978409 -0.640625l0 -33.984375l9.71875 0l0.453125 11.078125l-1.921875 -2.125q0.765625 -2.75 2.53125 -4.921875q1.765625 -2.171875 4.125 -3.453125q2.375 -1.28125 5.0625 -1.28125q1.140625 0 2.125 0.203125q1.0 0.1875 1.84375 0.4375l-2.828125 11.328125q-0.703125 -0.453125 -1.890625 -0.734375q-1.171875 -0.296875 -2.453125 -0.296875q-1.40625 0 -2.625 0.484375q-1.21875 0.484375 -2.046875 1.390625q-0.828125 0.890625 -1.3125 2.109375q-0.484375 1.203125 -0.484375 2.734375l0 17.03125l-10.296875 0zm33.401184 14.71875l7.75 -18.234375l0.125 5.25l-16.390625 -35.71875l11.59375 0l7.171875 17.09375q0.5625 1.28125 1.078125 2.75q0.515625 1.46875 0.765625 2.8125l-1.40625 0.828125q0.390625 -0.953125 0.859375 -2.390625q0.484375 -1.453125 1.0625 -3.109375l6.28125 -17.984375l11.640625 0l-14.46875 33.984375l-5.875 14.71875l-10.1875 0zm46.211792 -14.078125q-4.984375 0 -8.796875 -1.59375q-3.8125 -1.609375 -6.046875 -4.296875l6.203125 -5.375q1.984375 1.984375 4.484375 2.921875q2.5 0.921875 4.734375 0.921875q0.890625 0 1.59375 -0.1875q0.703125 -0.203125 1.1875 -0.546875q0.484375 -0.359375 0.734375 -0.828125q0.265625 -0.484375 0.265625 -1.125q0 -1.28125 -1.15625 -1.984375q-0.578125 -0.328125 -1.921875 -0.765625q-1.34375 -0.453125 -3.453125 -1.03125q-3.015625 -0.765625 -5.21875 -1.8125q-2.203125 -1.0625 -3.625 -2.46875q-1.265625 -1.34375 -1.984375 -2.96875q-0.703125 -1.640625 -0.703125 -3.6875q0 -2.375 1.125 -4.296875q1.125 -1.921875 3.0 -3.328125q1.890625 -1.40625 4.359375 -2.140625q2.46875 -0.734375 5.09375 -0.734375q2.8125 0 5.375 0.640625q2.5625 0.640625 4.765625 1.796875q2.203125 1.140625 3.9375 2.75l-5.375 6.015625q-1.15625 -1.09375 -2.59375 -1.953125q-1.4375 -0.859375 -2.984375 -1.375q-1.53125 -0.515625 -2.8125 -0.515625q-0.953125 0 -1.6875 0.15625q-0.734375 0.15625 -1.25 0.515625q-0.515625 0.359375 -0.78125 0.84375q-0.25 0.46875 -0.25 1.109375q0 0.640625 0.34375 1.21875q0.359375 0.578125 1.0 0.953125q0.640625 0.390625 2.046875 0.875q1.421875 0.46875 3.84375 1.171875q3.015625 0.84375 5.1875 1.875q2.171875 1.015625 3.453125 2.421875q1.03125 1.078125 1.53125 2.53125q0.515625 1.4375 0.515625 3.09375q0 3.265625 -1.828125 5.796875q-1.8125 2.53125 -5.015625 3.96875q-3.203125 1.4375 -7.296875 1.4375zm23.039307 -0.640625l0 -42.5625l10.234375 0l0 42.5625l-10.234375 0zm-6.015625 -25.03125l0 -8.953125l22.84375 0l0 8.953125l-22.84375 0zm40.901947 25.609375q-4.296875 0 -7.65625 -2.265625q-3.359375 -2.28125 -5.34375 -6.28125q-1.984375 -4.0 -1.984375 -9.0625q0 -5.171875 1.984375 -9.140625q1.984375 -3.96875 5.4375 -6.234375q3.453125 -2.28125 7.875 -2.28125q2.4375 0 4.453125 0.703125q2.015625 0.703125 3.546875 1.953125q1.53125 1.25 2.625 2.890625q1.09375 1.625 1.59375 3.484375l-2.109375 -0.265625l0 -8.0625l10.1875 0l0 33.984375l-10.375 0l0 -8.1875l2.296875 -0.0625q-0.5 1.78125 -1.65625 3.390625q-1.15625 1.59375 -2.828125 2.8125q-1.65625 1.21875 -3.703125 1.921875q-2.046875 0.703125 -4.34375 0.703125zm2.8125 -8.640625q2.359375 0 4.09375 -1.078125q1.734375 -1.09375 2.6875 -3.109375q0.953125 -2.015625 0.953125 -4.78125q0 -2.75 -0.953125 -4.765625q-0.953125 -2.015625 -2.6875 -3.125q-1.734375 -1.125 -4.09375 -1.125q-2.3125 0 -4.015625 1.125q-1.6875 1.109375 -2.65625 3.125q-0.953125 2.015625 -0.953125 4.765625q0 2.765625 0.953125 4.78125q0.96875 2.015625 2.65625 3.109375q1.703125 1.078125 4.015625 1.078125zm26.879059 8.0625l0 -47.359375l10.234375 0l0 47.359375l-10.234375 0z" fill-rule="nonzero"/></g></svg>